<mxfile host="app.diagrams.net" agent="Mozilla/5.0 (Windows NT 10.0; Win64; x64) AppleWebKit/537.36 (KHTML, like Gecko) Chrome/130.0.0.0 Safari/537.36" version="24.8.3">
  <diagram name="Page-1" id="-YM1QzztnOv8RczI9xZv">
    <mxGraphModel dx="1048" dy="1310" grid="0" gridSize="10" guides="1" tooltips="1" connect="1" arrows="1" fold="1" page="0" pageScale="1" pageWidth="850" pageHeight="1100" math="0" shadow="0">
      <root>
        <mxCell id="0" />
        <mxCell id="1" parent="0" />
        <mxCell id="2" value="Source Code" style="rounded=1;arcSize=40;strokeWidth=2" parent="1" vertex="1">
          <mxGeometry x="8" y="8" width="119" height="48" as="geometry" />
        </mxCell>
        <mxCell id="3" value="Container image" style="rounded=1;arcSize=40;strokeWidth=2" parent="1" vertex="1">
          <mxGeometry x="217" y="8" width="148" height="48" as="geometry" />
        </mxCell>
        <mxCell id="4" value="Docker" style="rounded=1;arcSize=40;strokeWidth=2" parent="1" vertex="1">
          <mxGeometry x="468" y="8" width="151" height="48" as="geometry" />
        </mxCell>
        <mxCell id="5" value="Build" style="curved=1;startArrow=none;endArrow=block;exitX=1;exitY=0.5;entryX=0;entryY=0.5;" parent="1" source="2" target="3" edge="1">
          <mxGeometry relative="1" as="geometry">
            <Array as="points" />
          </mxGeometry>
        </mxCell>
        <mxCell id="6" value="Deploy" style="curved=1;startArrow=none;endArrow=block;exitX=1;exitY=0.5;entryX=0;entryY=0.5;" parent="1" edge="1">
          <mxGeometry relative="1" as="geometry">
            <Array as="points" />
            <mxPoint x="366" y="32" as="sourcePoint" />
            <mxPoint x="469" y="32" as="targetPoint" />
          </mxGeometry>
        </mxCell>
        <mxCell id="fvdjcp3owGbM-i876L0J-6" value="Elastic Beanstalk" style="rounded=1;arcSize=40;strokeWidth=2" vertex="1" parent="1">
          <mxGeometry x="707" y="8" width="151" height="48" as="geometry" />
        </mxCell>
        <mxCell id="fvdjcp3owGbM-i876L0J-8" value="Build" style="curved=1;startArrow=none;endArrow=block;exitX=1;exitY=0.5;entryX=0;entryY=0.5;" edge="1" parent="1">
          <mxGeometry relative="1" as="geometry">
            <Array as="points" />
            <mxPoint x="127" y="32" as="sourcePoint" />
            <mxPoint x="217" y="32" as="targetPoint" />
          </mxGeometry>
        </mxCell>
        <mxCell id="fvdjcp3owGbM-i876L0J-9" value="Deploy" style="curved=1;startArrow=none;endArrow=block;exitX=1;exitY=0.5;entryX=0;entryY=0.5;" edge="1" parent="1">
          <mxGeometry relative="1" as="geometry">
            <Array as="points" />
            <mxPoint x="616" y="31.33" as="sourcePoint" />
            <mxPoint x="706" y="31.33" as="targetPoint" />
          </mxGeometry>
        </mxCell>
      </root>
    </mxGraphModel>
  </diagram>
</mxfile>
